<svg fill="white" viewBox="0 8 18 15.01" xmlns="http://www.w3.org/2000/svg">
	<path d="M4.24,13.75c-0.26-0.48-0.39-1.03-0.39-1.67c0-0.61,0.13-1.16,0.4-1.67c0.26-0.5,0.63-0.93,1.11-1.29c0.48-0.35,1.05-0.63,1.7-0.83C7.72,8.1,8.45,8,9.24,8c0.81,0,1.54,0.11,2.21,0.34c0.66,0.22,1.23,0.54,1.69,0.94c0.47,0.4,0.83,0.88,1.08,1.43c0.25,0.55,0.38,1.15,0.38,1.81h-3.01c0-0.31-0.05-0.59-0.15-0.85c-0.09-0.27-0.24-0.49-0.44-0.68c-0.2-0.19-0.45-0.33-0.75-0.44c-0.3-0.1-0.66-0.16-1.06-0.16c-0.39,0-0.74,0.04-1.03,0.13s-0.53,0.21-0.72,0.36C7.25,11.04,7.1,11.22,7,11.43c-0.1,0.21-0.15,0.43-0.15,0.66c0,0.48,0.25,0.88,0.74,1.21C7.97,13.55,8.36,13.78,9,14H4.39C4.34,13.92,4.28,13.83,4.24,13.75z M18,17v-2H0v2h9.62c0.18,0.07,0.4,0.14,0.55,0.2c0.37,0.17,0.66,0.34,0.87,0.51c0.21,0.17,0.35,0.36,0.43,0.57c0.07,0.2,0.11,0.43,0.11,0.69c0,0.23-0.05,0.45-0.14,0.66c-0.09,0.2-0.23,0.38-0.42,0.53c-0.19,0.15-0.42,0.26-0.71,0.35c-0.29,0.08-0.63,0.13-1.01,0.13c-0.43,0-0.83-0.04-1.18-0.13s-0.66-0.23-0.91-0.42c-0.25-0.19-0.45-0.44-0.59-0.75c-0.14-0.31-0.25-0.76-0.25-1.21H3.4c0,0.55,0.08,1.13,0.24,1.58s0.37,0.85,0.65,1.21c0.28,0.35,0.6,0.66,0.98,0.92c0.37,0.26,0.78,0.48,1.22,0.65c0.44,0.17,0.9,0.3,1.38,0.39c0.48,0.08,0.96,0.13,1.44,0.13c0.8,0,1.53-0.09,2.18-0.28s1.21-0.45,1.67-0.79c0.46-0.34,0.82-0.77,1.07-1.27s0.38-1.07,0.38-1.71c0-0.6-0.1-1.14-0.31-1.61c-0.05-0.11-0.11-0.23-0.17-0.33H18V17z"/>
</svg>