<svg fill="#36393f" version="1.1" id="Layer_1" xmlns="http://www.w3.org/2000/svg" xmlns:xlink="http://www.w3.org/1999/xlink" x="0px" y="0px"
	 viewBox="0 0 112.19686 35" style="enable-background:new 0 0 112.19686 138.36063;" xml:space="preserve">
<g id="XMLID_155_">
	<g id="XMLID_233_">
		<path id="XMLID_237_" d="M111.43498,23.64413C93.80396,6.75682,65.57638-4.58233,41.07244,1.80488
			C29.53319,4.8127,21.85839,13.80613,17.07092,24.32176c-5.75447,12.63966-9.063,26.62702-11.906,40.16529
			c-4.25295,20.25237-11.9726,52.40464,7.36137,67.65823c9.15469,7.22261,22.0692,7.74359,32.67805,3.65462
			c11.85676-4.56996,20.97681-13.99676,28.50565-23.93098c18.51028-24.42413,27.88814-55.14072,26.68252-85.71262
			c-0.12646-3.20681-5.1271-3.22306-5,0c0.95235,24.14954-4.79716,48.24664-16.79404,69.25812
			c-10.56293,18.50006-30.55762,44.15065-55.15856,36.83351C-0.3728,125.16523,4.96626,93.31627,8.20198,75.03288
			c2.26251-12.78429,5.31844-25.47928,9.30031-37.84005c3.22038-9.9969,7.67551-21.13861,16.87618-27.09917
			c10.93304-7.08286,26.74612-5.42077,38.7524-2.34414c13.0964,3.35598,25.01884,10.09168,34.76859,19.43016
			C110.22352,29.4057,113.76432,25.87521,111.43498,23.64413L111.43498,23.64413z"/>
	</g>
</g>
<g id="XMLID_148_">
	<g id="XMLID_227_">
		<path id="XMLID_231_" d="M31.10921,26.22735c0.09505,1.15714,0.07176,2.3322-0.11639,3.33982
			c-0.23925,1.28127,0.35383,2.75818,1.7461,3.0753c1.22861,0.27984,2.81861-0.37145,3.07529-1.7461
			c0.28933-1.54946,0.42417-3.09644,0.295-4.66902c-0.10679-1.30009-1.07335-2.5639-2.5-2.5
			C32.34645,23.78391,30.99455,24.83156,31.10921,26.22735L31.10921,26.22735z"/>
	</g>
</g>
<g id="XMLID_141_">
	<g id="XMLID_221_">
		<path id="XMLID_225_" d="M40.62956,25.72573c0.03832,1.31479-0.05202,2.06755-0.41932,3.33464
			c-0.36393,1.25549,0.44185,2.77823,1.7461,3.0753c1.33614,0.30433,2.68555-0.40154,3.0753-1.7461
			c0.43648-1.50578,0.6436-3.09659,0.59792-4.66384c-0.03806-1.30597-1.12263-2.56169-2.5-2.5
			C41.80769,23.28494,40.58875,24.32538,40.62956,25.72573L40.62956,25.72573z"/>
	</g>
</g>
<g id="XMLID_134_">
	<g id="XMLID_215_">
		<path id="XMLID_219_" d="M22.38692,48.08218c14.35521,2.7413,28.87224,4.02969,43.48694,3.79544
			c3.21421-0.05152,3.22399-5.05168,0-5c-14.16986,0.22712-28.23516-0.95815-42.15774-3.61684
			C20.5718,42.66034,19.22482,47.47834,22.38692,48.08218L22.38692,48.08218z"/>
	</g>
</g>
<g id="XMLID_127_">
	<g id="XMLID_209_">
		<path id="XMLID_213_" d="M75.87827,36.69097c-6.52724,0.20282-10.64567,5.98456-10.88563,12.21866
			c-0.2774,7.20649,5.22237,10.73428,11.37212,12.74453c3.06559,1.00209,4.37917-3.82441,1.3292-4.8214
			c-3.37761-1.10408-7.33873-2.56097-7.7039-6.68877c-0.32584-3.68324,1.77182-8.32511,5.88821-8.45302
			C79.08812,41.59122,79.10207,36.59079,75.87827,36.69097L75.87827,36.69097z"/>
	</g>
</g>
<g id="XMLID_6_">
	<g id="XMLID_203_">
		<path id="XMLID_207_" d="M17.99079,43.98108c1.42247,1.02703,0.35407,2.65428-0.95724,2.94382
			c-3.14065,0.69345-1.81156,5.51487,1.3292,4.8214c2.52177-0.5568,4.65102-2.60665,5.13529-5.17197
			c0.52635-2.7882-0.74794-5.29638-2.98366-6.91059c-1.09535-0.79085-2.78529-0.1891-3.42048,0.89688
			C16.35637,41.82157,16.89288,43.18839,17.99079,43.98108L17.99079,43.98108z"/>
	</g>
</g>
<g id="XMLID_5_">
	<g id="XMLID_197_">
		<path id="XMLID_201_" d="M18.75815,128.1846c2.51724,1.00691,5.09791,1.74568,7.76687,2.2234
			c1.32763,0.23763,2.69452-0.36031,3.0753-1.74611c0.33246-1.20994-0.40998-2.83614-1.7461-3.07529
			c-2.66875-0.47767-5.24942-1.21641-7.76687-2.22339c-1.25406-0.50163-2.74601,0.5477-3.0753,1.7461
			C16.62061,126.53391,17.49946,127.68113,18.75815,128.1846L18.75815,128.1846z"/>
	</g>
</g>
<g id="XMLID_4_">
	<g id="XMLID_190_">
		<path id="XMLID_195_" d="M16.06938,119.3779c7.79727,2.1644,15.71978,3.37678,23.8051,3.67056
			c3.21805,0.11693,3.21329-4.88324,0-5c-7.64789-0.27789-15.1042-1.44569-22.4759-3.49196
			C14.29335,113.69453,12.96818,118.51705,16.06938,119.3779L16.06938,119.3779z"/>
	</g>
</g>
<g id="XMLID_3_">
	<g id="XMLID_183_">
		<path id="XMLID_188_" d="M82.84803,23.98754c7.60279,3.47716,14.55261,7.9698,20.77991,13.55324
			c2.38972,2.14264,5.9374-1.38201,3.53554-3.53553c-6.54051-5.86427-13.79971-10.67984-21.79185-14.33506
			C82.46635,18.34145,79.9224,22.6495,82.84803,23.98754L82.84803,23.98754z"/>
	</g>
</g>
<g id="XMLID_2_">
	<g id="XMLID_176_">
		<path id="XMLID_181_" d="M86.633,38.61481c4.67437,2.70213,9.31789,5.43139,13.20996,9.21914
			c2.30739,2.24554,5.84658-1.28643,3.53554-3.53553c-4.19591-4.08344-9.18127-7.0871-14.2219-10.00096
			C86.36568,32.6841,83.84509,37.00319,86.633,38.61481L86.633,38.61481z"/>
	</g>
</g>
<g id="XMLID_1_">
	<g id="XMLID_169_">
		<path id="XMLID_174_" d="M98.45802,57.49622c1.44236-1.16934,0.56222,5.41757,0.81875,3.66598
			c-0.17175,1.17268-0.44141,2.33295-0.71895,3.48383c-0.27877,1.15601-0.59389,2.3028-0.91944,3.44644
			c-0.07301,0.25649-1.44385,4.82205-2.40615,3.19029c-1.63343-2.76979-5.95715-0.25697-4.31735,2.5236
			c1.49699,2.53844,4.48365,3.86604,7.29548,2.5646c3.46364-1.60313,4.17671-6.4421,5.00017-9.70312
			c0.83416-3.30341,2.492-8.33092,0.06675-11.30831c-2.23811-2.74765-5.55758-3.66657-8.35479-1.39885
			C92.42226,55.98764,95.97887,59.50608,98.45802,57.49622L98.45802,57.49622z"/>
	</g>
</g>
</svg>
